<svg width="114" height="28" viewBox="0 0 114 28" fill="none" xmlns="http://www.w3.org/2000/svg">
<g clip-path="url(#clip0)">
<path d="M24.3206 14.8491C24.329 16.8028 24.3338 18.7553 24.3505 20.7091C24.3529 20.9654 24.2488 21.0996 24.0357 21.2229C20.1867 23.4402 16.3402 25.6634 12.4961 27.889C12.2925 28.0076 12.1213 28.0519 11.8927 27.9166C10.2142 26.9236 8.52623 25.9437 6.8418 24.9603C6.85137 24.7147 7.0537 24.6428 7.2213 24.5434C8.65911 23.6881 10.1292 22.8868 11.5623 22.0231C11.7335 21.9201 11.9083 21.8219 12.1178 21.8267C14.3936 20.5246 16.6706 19.2237 18.9465 17.9216C19.0003 17.8558 19.0362 17.7755 19.1033 17.718C20.5662 16.804 22.0902 15.9955 23.5723 15.1138C23.7938 14.9821 24.0057 14.7473 24.3206 14.8491Z" fill="white"/>
<path d="M0.0347517 13.1323C0.0251743 11.181 0.0191884 9.22851 3.36049e-05 7.27599C-0.00236075 7.01246 0.123343 6.88908 0.329257 6.7705C4.17579 4.55325 8.02112 2.33122 11.8641 0.107991C12.046 0.00257946 12.2005 -0.05372 12.4124 0.0720554C14.1076 1.07467 15.8088 2.0653 17.5088 3.05952C17.4525 3.33144 17.2142 3.42726 17.0131 3.53867C15.6435 4.3053 14.2955 5.11026 12.9343 5.89246C12.7105 6.02063 12.4818 6.14282 12.2208 6.18115C10.2227 7.32031 8.22344 8.45828 6.22655 9.60104C5.93564 9.76754 5.65909 9.9592 5.37536 10.1401C4.56248 10.7821 3.62389 11.2182 2.74157 11.744C2.02566 12.1705 1.31453 12.6053 0.579467 12.9982C0.410665 13.0892 0.255032 13.2449 0.0347517 13.1323Z" fill="white"/>
<path d="M0.0343418 13.1329C1.65293 12.2045 3.27271 11.2774 4.89009 10.3467C5.04453 10.258 5.1858 10.1418 5.37615 10.1406C5.38213 12.5507 5.39889 14.9596 5.38572 17.3697C5.38333 17.7782 5.50424 18.007 5.86579 18.2118C7.95846 19.4013 10.0356 20.6183 12.1186 21.827C10.5252 22.7637 8.93176 23.7004 7.34071 24.6395C7.17072 24.7402 7.0091 24.854 6.84269 24.9606C4.65066 23.7052 2.46102 22.4474 0.266594 21.1993C0.063074 21.0831 -0.000376368 20.9381 0.00201799 20.7177C0.0139898 18.1903 0.0235672 15.6616 0.0343418 13.1329Z" fill="white"/>
<path d="M19.0658 17.8175C19.0263 17.8522 18.9856 17.8869 18.9461 17.9217C18.933 16.7094 18.933 16.7094 17.7346 16.7094C16.0621 16.7094 14.3897 16.6963 12.7172 16.719C12.2886 16.725 12.1246 16.634 12.1342 16.1644C12.1653 14.7306 12.1569 13.2955 12.1378 11.8617C12.133 11.4688 12.2108 11.3035 12.655 11.3047C16.3985 11.3215 20.1409 11.3191 23.8845 11.3071C24.2544 11.3059 24.3717 11.4137 24.3514 11.7802C24.3179 12.3959 24.3274 13.014 24.3191 13.6297C23.9994 14.0969 23.4726 14.279 23.0165 14.5461C21.9355 15.1798 20.8472 15.8027 19.759 16.4256C19.3915 16.6364 19.1664 16.8712 19.2059 17.3132C19.2215 17.4916 19.2011 17.6737 19.0658 17.8175Z" fill="white"/>
<path d="M12.2207 6.18142C13.6932 5.31536 15.167 4.44931 16.6395 3.58206C16.9304 3.41076 17.2189 3.23348 17.5086 3.05859C19.7055 4.31275 21.8999 5.56931 24.0991 6.81868C24.2763 6.9193 24.3505 7.04148 24.3481 7.24632C24.3397 8.06445 24.3361 8.88259 24.3493 9.69953C24.3541 9.97864 24.2655 10.084 23.9758 10.0828C22.3811 10.0733 20.7865 10.0781 19.1907 10.0781C19.0063 10.0781 18.8435 10.0265 18.6819 9.93312C16.5305 8.68135 14.3756 7.43198 12.2207 6.18142Z" fill="white"/>
<path d="M18.9797 17.9216C18.9785 17.8809 18.9821 17.8389 18.9761 17.7994C18.8612 17.0603 19.0791 16.6016 19.8142 16.2266C21.3561 15.4408 22.8227 14.5053 24.3203 13.6309C24.3203 14.0477 24.3203 14.4634 24.3215 14.8802C22.6527 15.8553 20.985 16.8303 19.3149 17.8018C19.2132 17.8593 19.0911 17.8821 18.9797 17.9216Z" fill="white"/>
<path d="M40.7854 16.6913C40.7854 17.4891 40.7711 18.2868 40.7914 19.0846C40.7998 19.4236 40.6897 19.5482 40.3485 19.5254C39.9714 19.5003 39.5919 19.523 39.2124 19.517C39.0819 19.5147 38.8652 19.5614 38.8568 19.3937C38.8221 18.7145 38.4833 19.1134 38.2594 19.22C34.3961 21.0755 30.0623 18.1838 30.2563 13.8763C30.4215 10.224 33.448 7.79359 37.1975 8.28591C38.4545 8.45121 39.5859 8.86927 40.5568 9.70897C40.9112 10.0144 41.0393 10.2684 40.5759 10.5654C40.5424 10.587 40.5173 10.6193 40.4886 10.6469C40.1497 10.9559 39.8588 11.3896 39.4602 11.5405C38.9921 11.7178 38.7419 11.1165 38.3552 10.914C36.9377 10.1701 35.0234 10.351 33.9352 11.3848C32.8601 12.4065 32.5417 14.3543 33.2157 15.7737C34.0394 17.5094 36.6061 18.1407 38.1588 17.0003C38.3827 16.8362 38.4414 16.6482 38.4378 16.3906C38.427 15.6731 38.4474 14.9544 38.4282 14.2369C38.4198 13.9099 38.5072 13.7577 38.8604 13.7841C39.4733 13.8284 40.2515 13.5421 40.6562 13.8943C41.0464 14.2333 40.7483 15.0239 40.7807 15.6144C40.8022 15.9726 40.7854 16.3319 40.7854 16.6913Z" fill="white"/>
<path d="M70.2649 14.253C71.2897 13.2863 72.3253 12.3292 73.3333 11.3458C73.6003 11.0858 73.8661 10.9828 74.2312 10.9948C74.9806 11.0187 75.7313 11.002 76.5765 11.002C76.1467 11.6476 75.6103 12.0597 75.159 12.5448C74.6167 13.1294 74.06 13.7031 73.4782 14.247C73.1789 14.5261 73.1777 14.7046 73.4363 15.0232C74.6011 16.4642 75.7348 17.9292 76.9751 19.508C75.9252 19.508 74.9878 19.5164 74.0516 19.5008C73.8577 19.4972 73.7823 19.2804 73.6721 19.1438C72.9682 18.2766 72.2594 17.4129 71.5735 16.5325C71.3628 16.2618 71.2466 16.2666 70.9773 16.4882C70.3308 17.0188 70.0315 17.6261 70.1009 18.4934C70.1823 19.5152 70.1201 19.52 69.0714 19.52C68.7529 19.52 68.4309 19.4972 68.1148 19.5259C67.7437 19.5583 67.6383 19.4205 67.6419 19.0528C67.6599 17.4165 67.6491 15.7814 67.6491 14.1452C67.6491 12.1902 67.6587 10.2341 67.6407 8.27923C67.6371 7.89472 67.7329 7.7402 68.1376 7.76655C68.6344 7.79889 69.136 7.80368 69.6316 7.76535C70.0554 7.73301 70.1273 7.91748 70.1249 8.28403C70.1117 10.0593 70.1189 11.8357 70.1189 13.6109C70.1189 13.8062 70.1189 14.0002 70.1189 14.1955C70.168 14.2158 70.2159 14.2338 70.2649 14.253Z" fill="white"/>
<path d="M48.7549 19.6404C46.8897 19.6033 45.2699 19.0391 44.384 17.2674C43.5914 15.6851 43.6968 14.0703 44.7587 12.6329C45.8757 11.1212 47.4763 10.6684 49.2721 10.9391C51.3096 11.2458 52.6517 12.7048 52.8504 14.6298C52.9007 15.1233 52.7223 15.2335 52.3009 15.3101C50.5961 15.618 48.8961 15.9522 47.1973 16.2912C47.0202 16.3259 46.7436 16.2672 46.6921 16.5008C46.649 16.6997 46.8502 16.8518 46.9866 16.9931C47.7708 17.8113 49.5378 17.8927 50.5878 17.1177C50.8966 16.8901 51.075 16.8674 51.3001 17.18C51.4389 17.3729 51.6221 17.5322 51.7849 17.7083C52.3584 18.3252 52.3608 18.3443 51.6473 18.8474C50.7817 19.4583 49.7988 19.656 48.7549 19.6404ZM48.2832 12.7719C47.3805 12.7683 46.5712 13.4499 46.3869 14.5112C46.3294 14.8382 46.3701 15.0071 46.764 14.9244C47.8726 14.6932 48.9811 14.4644 50.0957 14.2644C50.4644 14.1985 50.4549 14.0476 50.304 13.79C49.8946 13.0917 49.2804 12.7623 48.2832 12.7719Z" fill="white"/>
<path d="M60.3078 19.6346C59.1801 19.6634 58.1266 19.4046 57.1999 18.7494C55.7178 17.7001 55.1085 15.8494 55.6125 14.0143C56.0866 12.2894 57.6489 11.0388 59.5141 10.8903C62.0988 10.6854 64.0394 12.1384 64.3902 14.5198C64.4596 14.9917 64.3866 15.2277 63.8419 15.3199C62.1335 15.6086 60.4347 15.9572 58.7359 16.2974C58.5611 16.3321 58.2798 16.2674 58.2331 16.5058C58.1948 16.7023 58.3959 16.8544 58.5336 16.9969C59.3058 17.7947 61.0752 17.9097 62.0844 17.1503C62.4939 16.8424 62.6854 16.9418 62.932 17.2749C63.0505 17.4342 63.199 17.5707 63.3343 17.7169C63.8981 18.3242 63.8981 18.3242 63.2457 18.8141C62.4974 19.3747 61.566 19.6346 60.3078 19.6346ZM58.1709 14.9486C59.3764 14.709 60.5856 14.4826 61.7863 14.2191C62.1239 14.1448 61.8977 13.9017 61.8222 13.7543C61.4272 12.9805 60.4156 12.5888 59.4494 12.82C58.6138 13.02 57.9578 13.8298 57.9242 14.6707C57.9159 14.8767 57.9422 14.9821 58.1709 14.9486Z" fill="white"/>
<path d="M101.462 19.6338C99.0171 19.6314 97.3063 18.5234 96.709 16.6128C95.9583 14.2135 97.2429 11.7794 99.6372 11.0679C102.142 10.3228 104.68 11.5818 105.308 13.8817C105.655 15.1514 105.643 15.167 104.361 15.4138C102.816 15.7108 101.269 16.0055 99.7246 16.3098C99.1895 16.4152 99.1644 16.511 99.5247 16.9326C100.245 17.7771 102.06 17.9329 103.117 17.1674C103.534 16.8656 103.756 16.9171 104.011 17.2944C104.088 17.4082 104.195 17.5028 104.289 17.6058C104.967 18.3413 104.965 18.4132 104.113 18.9498C103.277 19.4769 102.349 19.6698 101.462 19.6338ZM99.3164 14.9298C100.339 14.7298 101.444 14.4926 102.557 14.3033C103.084 14.2135 103.046 13.9931 102.821 13.6373C102.375 12.9342 101.346 12.5832 100.438 12.8372C99.6492 13.0588 98.9932 13.8925 98.9644 14.6807C98.9572 14.8963 99.0207 14.9765 99.3164 14.9298Z" fill="white"/>
<path d="M82.2554 19.631C81.0726 19.6586 79.9927 19.4166 78.9536 18.9698C78.6483 18.8381 78.507 18.6895 78.6986 18.3433C78.9212 17.9433 78.9943 17.3827 79.3175 17.1383C79.6874 16.8592 80.1112 17.3659 80.529 17.4785C81.3287 17.6929 82.1297 17.8187 82.9509 17.7073C83.3651 17.651 83.832 17.5791 83.8416 17.0161C83.8512 16.4974 83.3987 16.4579 83.0407 16.3812C82.2434 16.2088 81.4329 16.0938 80.6392 15.9057C79.4719 15.629 78.8877 14.9917 78.7644 13.9436C78.6375 12.8703 79.1044 11.936 80.122 11.4401C81.9477 10.5525 83.7925 10.7477 85.629 11.4437C85.8948 11.5443 85.9594 11.7048 85.8205 11.9492C85.811 11.9659 85.8026 11.9851 85.7942 12.0031C85.5955 12.4151 85.4925 12.9494 85.1705 13.2069C84.8137 13.492 84.3959 12.9925 83.9805 12.9122C83.2682 12.7757 82.5618 12.6906 81.8483 12.8571C81.4856 12.9422 81.1408 13.1051 81.1396 13.5471C81.1384 13.9795 81.4904 14.0909 81.8304 14.1652C82.6863 14.3509 83.5519 14.4934 84.4007 14.7066C85.5212 14.9893 86.1438 15.6589 86.2264 16.5813C86.3293 17.7444 85.8577 18.6009 84.8209 19.1172C83.9961 19.528 83.1173 19.661 82.2554 19.631Z" fill="white"/>
<path d="M89.2679 13.2906C89.2679 12.0544 89.2774 10.8182 89.2619 9.58325C89.2571 9.22629 89.36 9.08015 89.736 9.09931C90.2723 9.12686 90.8122 9.12088 91.3486 9.10171C91.6658 9.09093 91.77 9.21431 91.7568 9.51976C91.7388 9.91745 91.776 10.3187 91.746 10.7152C91.7149 11.1237 91.8873 11.2375 92.2668 11.2123C92.6631 11.1872 93.0641 11.2207 93.4616 11.2028C93.7764 11.1884 93.8591 11.3166 93.8734 11.6208C93.9405 13.1157 93.9488 13.1457 92.4548 13.1038C91.8657 13.087 91.7065 13.2643 91.7412 13.8357C91.7915 14.6694 91.746 15.5091 91.7568 16.3464C91.7712 17.4831 92.3662 17.9323 93.4221 17.537C93.81 17.3921 93.9069 17.4999 93.9991 17.8173C94.0602 18.027 94.15 18.2282 94.2266 18.433C94.5091 19.1841 94.4876 19.2416 93.7286 19.468C92.9683 19.6944 92.1914 19.7064 91.424 19.5363C90.1526 19.2536 89.3924 18.4163 89.3325 17.1154C89.2727 15.8433 89.3193 14.5664 89.3193 13.2906C89.299 13.2906 89.2834 13.2906 89.2679 13.2906Z" fill="white"/>
<path d="M111.13 11.9798C111.838 11.2587 112.626 10.9736 113.504 10.8826C113.855 10.8467 114.021 10.9293 113.999 11.3222C113.97 11.8002 113.976 12.2805 113.997 12.7584C114.012 13.0843 113.881 13.1454 113.577 13.1513C111.875 13.1885 111.196 13.888 111.187 15.5854C111.181 16.6239 111.188 17.6613 111.184 18.6998C111.181 19.6809 111.232 19.5012 110.339 19.5156C109.92 19.5228 109.501 19.5048 109.082 19.5204C108.796 19.5312 108.701 19.4186 108.702 19.1371C108.708 16.5617 108.71 13.9863 108.701 11.4109C108.7 11.1054 108.792 10.9784 109.111 10.9928C109.549 11.0132 109.992 11.0347 110.426 10.988C110.96 10.9305 111.169 11.121 111.085 11.6492C111.072 11.7235 111.103 11.8038 111.13 11.9798Z" fill="white"/>
</g>
<defs>
<clipPath id="clip0">
<rect width="114" height="28" fill="white"/>
</clipPath>
</defs>
</svg>
