<svg width="143" height="35" viewBox="0 0 143 35" fill="none" xmlns="http://www.w3.org/2000/svg">
<g clip-path="url(#clip0_8545_30177)">
<path d="M30.5111 18.5624C30.5216 21.0045 30.5276 23.4452 30.5486 25.8873C30.5516 26.2077 30.421 26.3754 30.1537 26.5296C25.3256 29.3012 20.5006 32.0802 15.6786 34.8623C15.4233 35.0105 15.2085 35.0659 14.9217 34.8967C12.8163 33.6554 10.6989 32.4306 8.58594 31.2013C8.59795 30.8944 8.85174 30.8045 9.06198 30.6802C10.8656 29.6111 12.7097 28.6094 14.5072 27.5299C14.722 27.4011 14.9412 27.2783 15.204 27.2843C18.0588 25.6567 20.9151 24.0306 23.7699 22.403C23.8374 22.3207 23.8825 22.2203 23.9666 22.1485C25.8017 21.006 27.7134 19.9953 29.5725 18.8933C29.8503 18.7286 30.1161 18.4351 30.5111 18.5624Z" fill="#29B475"/>
<path d="M0.0435921 16.4154C0.0315783 13.9763 0.0240697 11.5356 4.21535e-05 9.09499C-0.00296129 8.76558 0.15472 8.61135 0.413016 8.46312C5.23805 5.69157 10.0616 2.91403 14.8821 0.134989C15.1104 0.00322433 15.3041 -0.06715 15.5699 0.0900693C17.6963 1.34333 19.8303 2.58162 21.9627 3.8244C21.8922 4.16429 21.5933 4.28408 21.341 4.42333C19.623 5.38162 17.9321 6.38782 16.2247 7.36558C15.9438 7.52579 15.657 7.67852 15.3296 7.72643C12.8233 9.15039 10.3154 10.5729 7.8105 12.0013C7.44558 12.2094 7.09868 12.449 6.74278 12.6751C5.72311 13.4777 4.54576 14.0227 3.43899 14.68C2.54096 15.2131 1.64893 15.7566 0.726876 16.2477C0.515133 16.3615 0.319909 16.5562 0.0435921 16.4154Z" fill="#29B475"/>
<path d="M0.0406279 16.4161C2.07096 15.2557 4.10279 14.0967 6.13161 12.9333C6.32534 12.8225 6.50254 12.6773 6.74131 12.6758C6.74882 15.6884 6.76985 18.6995 6.75333 21.7121C6.75032 22.2227 6.902 22.5087 7.35552 22.7648C9.98053 24.2516 12.586 25.7729 15.199 27.2837C13.2002 28.4546 11.2014 29.6255 9.20564 30.7994C8.99239 30.9252 8.78966 31.0674 8.58092 31.2007C5.83127 29.6315 3.08462 28.0593 0.331962 26.4991C0.0766692 26.3539 -0.00292208 26.1727 8.13609e-05 25.8972C0.0150986 22.7378 0.0271124 19.577 0.0406279 16.4161Z" fill="#29B475"/>
<path d="M23.9142 22.2718C23.8647 22.3153 23.8136 22.3587 23.764 22.4021C23.7475 20.8868 23.7475 20.8868 22.2443 20.8868C20.1464 20.8868 18.0485 20.8703 15.9506 20.8988C15.413 20.9063 15.2072 20.7925 15.2192 20.2055C15.2583 18.4132 15.2478 16.6194 15.2237 14.8271C15.2177 14.336 15.3154 14.1294 15.8725 14.1309C20.5684 14.1518 25.2628 14.1488 29.9586 14.1339C30.4227 14.1324 30.5699 14.2671 30.5443 14.7253C30.5023 15.4949 30.5143 16.2676 30.5038 17.0372C30.1028 17.6211 29.4421 17.8487 28.8699 18.1826C27.5138 18.9747 26.1488 19.7533 24.7837 20.5319C24.3227 20.7955 24.0404 21.0889 24.0899 21.6415C24.1094 21.8646 24.0839 22.0922 23.9142 22.2718Z" fill="#29B475"/>
<path d="M15.3281 7.72579C17.1752 6.64323 19.0239 5.56066 20.871 4.4766C21.2359 4.26248 21.5978 4.04088 21.9612 3.82227C24.7169 5.38997 27.4696 6.96066 30.2282 8.52237C30.4505 8.64815 30.5436 8.80087 30.5406 9.05692C30.5301 10.0796 30.5256 11.1023 30.5421 12.1234C30.5481 12.4723 30.437 12.6041 30.0735 12.6026C28.0732 12.5906 26.0729 12.5966 24.0712 12.5966C23.8399 12.5966 23.6357 12.5322 23.4329 12.4154C20.7343 10.8507 18.0312 9.289 15.3281 7.72579Z" fill="#29B475"/>
<path d="M23.8064 22.4025C23.8049 22.3516 23.8094 22.2992 23.8019 22.2498C23.6577 21.3259 23.931 20.7524 24.8531 20.2838C26.7873 19.3015 28.6269 18.1321 30.5055 17.0391C30.5055 17.5601 30.5055 18.0797 30.507 18.6008C28.4136 19.8196 26.3217 21.0384 24.2268 22.2527C24.0992 22.3246 23.946 22.3531 23.8064 22.4025Z" fill="#29B475"/>
<path d="M51.1608 20.8651C51.1608 21.8623 51.1428 22.8595 51.1683 23.8568C51.1789 24.2805 51.0407 24.4362 50.6127 24.4078C50.1397 24.3763 49.6636 24.4048 49.1876 24.3973C49.0239 24.3943 48.7521 24.4527 48.7416 24.2431C48.698 23.3941 48.273 23.8927 47.9922 24.026C43.1461 26.3453 37.7099 22.7308 37.9532 17.3464C38.1604 12.781 41.9568 9.74296 46.6602 10.3584C48.237 10.565 49.6561 11.0876 50.874 12.1372C51.3185 12.519 51.4792 12.8364 50.898 13.2078C50.856 13.2347 50.8245 13.2752 50.7884 13.3096C50.3634 13.6959 49.9985 14.2379 49.4984 14.4266C48.9113 14.6482 48.5974 13.8965 48.1123 13.6435C46.3343 12.7137 43.933 12.9398 42.568 14.2319C41.2194 15.5092 40.82 17.9438 41.6655 19.7181C42.6986 21.8878 45.9183 22.6769 47.8661 21.2514C48.1469 21.0463 48.2205 20.8112 48.216 20.4893C48.2024 19.5924 48.228 18.694 48.2039 17.7971C48.1934 17.3883 48.3031 17.1981 48.7461 17.2311C49.5149 17.2865 50.4911 16.9286 50.9987 17.3688C51.4882 17.7926 51.1143 18.7808 51.1548 19.519C51.1819 19.9667 51.1608 20.4159 51.1608 20.8651Z" fill="#29B475"/>
<path d="M88.1356 17.8152C89.4211 16.6069 90.7201 15.4105 91.9846 14.1812C92.3195 13.8563 92.6528 13.7275 93.1109 13.7425C94.0509 13.7725 94.9925 13.7515 96.0527 13.7515C95.5136 14.5585 94.8408 15.0736 94.2747 15.68C93.5944 16.4107 92.8961 17.128 92.1663 17.8077C91.7908 18.1566 91.7893 18.3797 92.1137 18.778C93.5749 20.5793 94.997 22.4105 96.5528 24.384C95.2358 24.384 94.06 24.3945 92.8856 24.375C92.6423 24.3705 92.5477 24.0995 92.4096 23.9288C91.5265 22.8447 90.6375 21.7652 89.777 20.6646C89.5127 20.3262 89.3671 20.3322 89.0292 20.6092C88.2182 21.2726 87.8428 22.0317 87.9299 23.1158C88.032 24.393 87.9539 24.399 86.6384 24.399C86.239 24.399 85.835 24.3705 85.4386 24.4065C84.973 24.4469 84.8409 24.2747 84.8454 23.815C84.8679 21.7697 84.8544 19.7258 84.8544 17.6805C84.8544 15.2368 84.8664 12.7917 84.8439 10.3481C84.8394 9.86742 84.9595 9.67427 85.4671 9.70721C86.0903 9.74764 86.7195 9.75363 87.3412 9.70571C87.8728 9.66529 87.963 9.89587 87.9599 10.3541C87.9434 12.5731 87.9524 14.7936 87.9524 17.0127C87.9524 17.2567 87.9524 17.4993 87.9524 17.7434C88.014 17.7688 88.0741 17.7913 88.1356 17.8152Z" fill="#29B475"/>
<path d="M61.1582 24.551C58.8185 24.5046 56.7866 23.7993 55.6754 21.5848C54.6812 19.6068 54.8134 17.5884 56.1454 15.7916C57.5465 13.902 59.5543 13.336 61.8069 13.6744C64.3628 14.0577 66.0463 15.8815 66.2955 18.2877C66.3586 18.9046 66.1349 19.0423 65.6063 19.1382C63.4678 19.523 61.3354 19.9407 59.2044 20.3645C58.9822 20.4079 58.6353 20.3345 58.5707 20.6265C58.5166 20.8751 58.7689 21.0652 58.9401 21.2419C59.9237 22.2646 62.1403 22.3664 63.4573 21.3976C63.8447 21.1131 64.0685 21.0847 64.3508 21.4755C64.525 21.7166 64.7548 21.9157 64.959 22.1358C65.6783 22.9069 65.6813 22.9309 64.7863 23.5598C63.7006 24.3234 62.4677 24.5705 61.1582 24.551ZM60.5665 15.9653C59.4342 15.9608 58.419 16.8128 58.1877 18.1394C58.1157 18.5482 58.1667 18.7593 58.6608 18.656C60.0514 18.367 61.442 18.081 62.8401 17.831C63.3026 17.7486 63.2906 17.56 63.1014 17.238C62.5878 16.3651 61.8174 15.9533 60.5665 15.9653Z" fill="#29B475"/>
<path d="M75.6471 24.5423C74.2325 24.5783 72.911 24.2548 71.7486 23.4358C69.8895 22.1241 69.1251 19.8108 69.7573 17.5169C70.352 15.3607 72.3118 13.7975 74.6514 13.6118C77.8937 13.3558 80.3279 15.1721 80.7679 18.1487C80.855 18.7387 80.7635 19.0337 80.0802 19.1489C77.9372 19.5098 75.8063 19.9455 73.6753 20.3708C73.4561 20.4142 73.1032 20.3333 73.0446 20.6313C72.9966 20.8769 73.2488 21.067 73.4215 21.2452C74.3902 22.2424 76.6097 22.3862 77.8756 21.4369C78.3892 21.0521 78.6295 21.1763 78.9389 21.5926C79.0875 21.7917 79.2737 21.9624 79.4434 22.1451C80.1508 22.9042 80.1507 22.9042 79.3323 23.5167C78.3937 24.2174 77.2254 24.5423 75.6471 24.5423ZM72.9665 18.6848C74.4788 18.3853 75.9955 18.1023 77.5017 17.7729C77.9252 17.6801 77.6414 17.3761 77.5468 17.1919C77.0512 16.2247 75.7822 15.735 74.5704 16.024C73.5222 16.2741 72.6992 17.2863 72.6572 18.3374C72.6467 18.5949 72.6797 18.7267 72.9665 18.6848Z" fill="#29B475"/>
<path d="M127.269 24.5418C124.203 24.5388 122.057 23.1538 121.307 20.7655C120.366 17.7664 121.977 14.7238 124.981 13.8344C128.122 12.9031 131.306 14.4768 132.094 17.3516C132.53 18.9388 132.515 18.9583 130.906 19.2667C128.968 19.638 127.027 20.0064 125.09 20.3867C124.419 20.5185 124.387 20.6383 124.839 21.1653C125.743 22.2209 128.02 22.4156 129.346 21.4588C129.869 21.0815 130.146 21.1458 130.466 21.6175C130.564 21.7597 130.698 21.878 130.816 22.0068C131.666 22.9262 131.663 23.016 130.595 23.6868C129.546 24.3456 128.382 24.5867 127.269 24.5418ZM124.578 18.6618C125.861 18.4117 127.247 18.1153 128.643 17.8787C129.304 17.7664 129.256 17.4909 128.974 17.0462C128.415 16.1672 127.123 15.7285 125.985 16.046C124.996 16.323 124.173 17.3651 124.137 18.3503C124.128 18.6199 124.207 18.7202 124.578 18.6618Z" fill="#29B475"/>
<path d="M103.18 24.5403C101.697 24.5747 100.342 24.2723 99.0387 23.7137C98.6557 23.549 98.4785 23.3634 98.7188 22.9306C98.9981 22.4305 99.0897 21.7298 99.4952 21.4243C99.9592 21.0755 100.491 21.7088 101.015 21.8496C102.018 22.1176 103.023 22.2748 104.053 22.1356C104.572 22.0652 105.158 21.9754 105.17 21.2716C105.182 20.6233 104.615 20.5739 104.166 20.478C103.165 20.2624 102.149 20.1187 101.153 19.8836C99.6889 19.5377 98.9561 18.7411 98.8014 17.431C98.6422 16.0894 99.2279 14.9214 100.504 14.3016C102.794 13.192 105.109 13.4361 107.412 14.306C107.746 14.4318 107.827 14.6325 107.653 14.9379C107.64 14.9589 107.63 14.9828 107.619 15.0053C107.37 15.5204 107.241 16.1882 106.837 16.5101C106.39 16.8665 105.865 16.2421 105.344 16.1418C104.451 15.9711 103.565 15.8648 102.67 16.0729C102.215 16.1792 101.782 16.3828 101.781 16.9353C101.779 17.4759 102.221 17.6151 102.647 17.708C103.721 17.9401 104.807 18.1182 105.871 18.3848C107.277 18.7381 108.058 19.5751 108.162 20.7281C108.291 22.182 107.699 23.2526 106.399 23.8979C105.364 24.4115 104.262 24.5777 103.18 24.5403Z" fill="#29B475"/>
<path d="M111.976 16.6143C111.976 15.069 111.988 13.5238 111.969 11.98C111.963 11.5338 112.092 11.3512 112.564 11.3751C113.236 11.4096 113.914 11.4021 114.586 11.3781C114.984 11.3646 115.115 11.5189 115.099 11.9007C115.076 12.3978 115.123 12.8994 115.085 13.395C115.046 13.9056 115.262 14.0478 115.738 14.0164C116.235 13.985 116.738 14.0269 117.237 14.0044C117.632 13.9865 117.736 14.1467 117.754 14.527C117.838 16.3957 117.848 16.4331 115.974 16.3807C115.235 16.3597 115.035 16.5813 115.079 17.2955C115.142 18.3377 115.085 19.3873 115.099 20.4339C115.117 21.8549 115.863 22.4164 117.187 21.9223C117.674 21.7411 117.796 21.8759 117.911 22.2727C117.988 22.5347 118.1 22.7862 118.197 23.0423C118.551 23.9811 118.524 24.053 117.572 24.336C116.618 24.619 115.644 24.6339 114.681 24.4213C113.086 24.068 112.133 23.0213 112.058 21.3952C111.982 19.8051 112.041 18.2089 112.041 16.6143C112.016 16.6143 111.996 16.6143 111.976 16.6143Z" fill="#29B475"/>
<path d="M139.399 14.9748C140.286 14.0734 141.274 13.717 142.376 13.6032C142.816 13.5583 143.025 13.6616 142.997 14.1528C142.961 14.7502 142.968 15.3506 142.995 15.9481C143.013 16.3553 142.85 16.4317 142.468 16.4392C140.333 16.4856 139.481 17.36 139.469 19.4817C139.462 20.7799 139.471 22.0766 139.466 23.3748C139.462 24.6011 139.526 24.3765 138.406 24.3945C137.88 24.4035 137.355 24.381 136.829 24.4005C136.47 24.4139 136.352 24.2732 136.353 23.9213C136.361 20.7021 136.362 17.4828 136.352 14.2636C136.35 13.8818 136.466 13.723 136.865 13.741C137.415 13.7665 137.97 13.7934 138.516 13.735C139.185 13.6631 139.447 13.9012 139.342 14.5615C139.325 14.6544 139.364 14.7547 139.399 14.9748Z" fill="#29B475"/>
</g>
<defs>
<clipPath id="clip0_8545_30177">
<rect width="143" height="35" fill="white"/>
</clipPath>
</defs>
</svg>
