<svg width="69" height="46" viewBox="0 0 69 46" fill="none" xmlns="http://www.w3.org/2000/svg">
<path d="M5.75453 15.7574L7.15319 33.661C7.45835 37.0243 10.4167 39.5043 13.7735 39.2155L59.429 40.5659C62.5909 40.2942 65.0237 37.6358 65.0237 34.4593V6.13463C65.0237 2.28722 61.5228 -0.617444 57.7507 0.112969L10.6965 9.17519C7.60245 9.76971 5.46632 12.6149 5.75453 15.7574Z" fill="#F8A120"/>
<path opacity="0.33" d="M6.26919 24.4285C7.94525 24.4285 9.53787 25.2112 9.97016 26.2446C10.3266 27.1033 10.0005 28.4862 9.15109 29.7704C8.059 31.4041 6.45121 32.4679 5.04818 32.4679C4.93442 32.4679 4.82825 32.4603 4.72207 32.4451C3.34179 32.278 1.70366 30.9178 1.46856 29.1625C1.17278 26.9969 3.13703 25.0288 5.16194 24.5501C5.49563 24.4665 5.87483 24.4285 6.26919 24.4285ZM6.26919 23C5.78382 23 5.29087 23.0532 4.82066 23.1672C2.13595 23.7979 -0.359172 26.4118 0.0427768 29.3601C0.368886 31.7309 2.46205 33.6153 4.54006 33.8661C4.7069 33.8889 4.87375 33.8965 5.04059 33.8965C8.85532 33.8965 12.5487 28.7446 11.2822 25.6975C10.592 24.0334 8.42303 23 6.26919 23Z" fill="white"/>
<path opacity="0.4" d="M62.1841 43.3432L40.9246 42.3325L61.6925 45.5174C64.5322 45.6618 67.0074 43.6065 67.3973 40.7867L67.5584 39.5977C66.6514 41.7125 64.6 43.2158 62.1841 43.3432Z" fill="#F8A120"/>
<path opacity="0.4" d="M4 10.721C4.46622 9.26864 5.53428 8.11357 6.89903 7.74836L18.563 4.61438L7.37373 5.70151C5.58515 5.87987 4.15259 7.60398 4.05087 9.70179L4 10.721Z" fill="#F8A120"/>
<path d="M21.0402 17.3466C20.7872 17.8636 20.2813 18.3401 19.5225 18.776L21.5764 22.5066L18.8952 22.7398L17.2662 19.3842L16.5377 19.4451L16.3556 22.9628L13.897 23.1757L14.3826 13.6362L17.6001 13.3524C18.7333 13.251 19.6237 13.4031 20.2611 13.8086C20.8985 14.2141 21.2527 14.8021 21.3235 15.5928C21.3842 16.2517 21.2931 16.8397 21.0402 17.3466ZM16.6187 17.7217L17.4585 17.6507C17.9745 17.6102 18.3286 17.4176 18.5411 17.1033C18.7535 16.7789 18.8345 16.4038 18.794 15.978C18.7637 15.6536 18.6423 15.4205 18.4197 15.2887C18.1971 15.1569 17.8733 15.1062 17.4483 15.1366L16.7401 15.1974L16.6187 17.7217Z" fill="white"/>
<path d="M28.5175 12.3995L28.1633 14.2243L25.0066 14.498L24.8952 16.5154L27.6574 16.2721L27.5765 18.0259L24.8143 18.2692L24.703 20.4386L28.0722 20.1446L27.9812 21.939L22.1331 22.456L22.6187 12.9165L28.5175 12.3995Z" fill="white"/>
<path d="M35.2863 11.8115L34.9423 13.6261L31.9676 13.8897L31.8563 16.1808L34.4667 15.9476L34.3756 17.742L31.7652 17.9751L31.5629 21.6246L29.1042 21.8375L29.5899 12.2981L35.2863 11.8115Z" fill="white"/>
<path d="M41.9237 11.2337L41.5696 13.0585L38.4128 13.3322L38.3015 15.3496L41.0637 15.1063L40.9827 16.8601L38.2205 17.1034L38.1093 19.2728L41.4785 18.9788L41.3874 20.7732L35.5393 21.2902L36.025 11.7507L41.9237 11.2337Z" fill="white"/>
<path d="M49.6535 14.8427C49.4005 15.3597 48.8946 15.8361 48.1358 16.272L50.1897 20.0027L47.5085 20.2358L45.8795 16.8803L45.151 16.9411L44.9689 20.4589L42.5103 20.6717L42.9959 11.1323L46.2134 10.8485C47.3466 10.7471 48.237 10.8992 48.8744 11.3047C49.5118 11.7102 49.8659 12.3083 49.9368 13.0889C49.9975 13.7478 49.9064 14.3256 49.6535 14.8427ZM45.232 15.2177L46.0717 15.1468C46.5878 15.1062 46.9419 14.9136 47.1544 14.5892C47.3668 14.2648 47.4478 13.8897 47.4073 13.464C47.3769 13.1396 47.2555 12.9064 47.0329 12.7746C46.8103 12.6428 46.4866 12.5921 46.0616 12.6225L45.3534 12.6834L45.232 15.2177Z" fill="white"/>
<path d="M59.1846 19.2119L58.5573 16.86L54.8947 17.1844L54.0043 19.6681L53.2151 19.7391L56.5843 10.6153L57.5455 10.5342L59.984 19.1511L59.1846 19.2119ZM55.1375 16.4951L58.3853 16.2112L57.0397 11.2134L55.1375 16.4951Z" fill="white"/>
<path d="M20.4736 25.8419L20.3522 26.5008L16.8615 26.805L16.6794 30.2619L19.7046 29.9983L19.6743 30.6471L16.649 30.9107L16.4264 35.0265L15.6575 35.0975L16.133 26.2271L20.4736 25.8419Z" fill="white"/>
<path d="M26.8987 29.0149C26.5648 29.5421 26.0083 29.9273 25.2393 30.1807L27.4349 34.0634L26.5749 34.1344L24.4906 30.3632L22.7301 30.5153L22.5278 34.4892L21.7588 34.5601L22.2343 25.6898L24.3793 25.4972C26.2208 25.335 27.2022 25.9432 27.3135 27.3118C27.3742 27.9201 27.2326 28.4878 26.8987 29.0149ZM24.2883 29.7549C25.1382 29.684 25.7351 29.4103 26.0791 28.9541C26.4231 28.4979 26.5648 27.9707 26.5142 27.3929C26.4737 26.8962 26.2815 26.5515 25.9375 26.3487C25.5935 26.146 25.0774 26.075 24.3793 26.1358L22.9628 26.2575L22.7604 29.8867L24.2883 29.7549Z" fill="white"/>
<path d="M30.5006 24.9599L30.025 33.8302L29.2561 33.9012L29.7316 25.0308L30.5006 24.9599Z" fill="white"/>
<path d="M37.7346 24.3313L37.6132 24.9903L34.0517 25.3045L33.8797 28.6094L36.9656 28.3357L36.9353 28.9845L33.8493 29.2582L33.647 32.8671L37.4007 32.5427L37.3703 33.2017L32.8477 33.597L33.3232 24.7267L37.7346 24.3313Z" fill="white"/>
<path d="M45.1005 32.5124L44.119 32.5935L40.3957 24.7876C40.4361 25.5885 40.426 26.6732 40.3451 28.0316L40.082 32.9584L39.3535 33.0193L39.8291 24.1489L40.8206 24.0577L44.5339 31.8433C44.4833 30.9816 44.4934 30.0591 44.544 29.0758L44.8172 23.713L45.5457 23.6522L45.1005 32.5124Z" fill="white"/>
<path d="M52.7292 23.7333C53.4172 24.1489 53.8219 24.9802 53.9332 26.217C54.0142 27.2003 53.9433 28.1127 53.7005 28.9744C53.4577 29.8259 53.0226 30.5457 52.3852 31.1134C51.7478 31.6811 50.8877 32.0157 49.8153 32.117L47.9131 32.2792L48.3886 23.4089L50.0986 23.2568C51.1609 23.1554 52.0412 23.3176 52.7292 23.7333ZM49.1171 23.9766L48.7225 31.5493L49.8557 31.448C50.736 31.3669 51.4442 31.0729 51.9501 30.5558C52.4661 30.0388 52.8102 29.4002 52.9822 28.65C53.1643 27.8998 53.2149 27.0989 53.144 26.2677C53.053 25.2336 52.7393 24.5646 52.2132 24.2503C51.6871 23.936 51.0092 23.8144 50.1896 23.8853L49.1171 23.9766Z" fill="white"/>
<path d="M60.3362 2.78828C60.0734 2.78828 59.8276 2.62691 59.7344 2.36362C59.6157 2.03239 59.7937 1.66718 60.1243 1.55677L63.9219 0.231836C64.2525 0.112931 64.617 0.291286 64.7271 0.622519C64.8458 0.953753 64.6678 1.31896 64.3372 1.42937L60.5396 2.7543C60.4718 2.77978 60.404 2.78828 60.3362 2.78828Z" fill="#29B475"/>
<path d="M43.8406 37.8906C43.8067 37.8906 43.7812 37.8906 43.7473 37.8821C42.0944 37.6358 40.2719 37.4405 38.5087 37.2451C37.2711 37.1092 35.9912 36.9733 34.762 36.812C34.4145 36.7695 34.1687 36.4468 34.2111 36.0985C34.2534 35.7503 34.5671 35.504 34.9231 35.5465C36.1437 35.6994 37.4152 35.8437 38.6444 35.9711C40.416 36.1665 42.2554 36.3618 43.9338 36.6166C44.2814 36.6676 44.5187 36.9903 44.4679 37.3385C44.417 37.6613 44.1457 37.8906 43.8406 37.8906Z" fill="#F8A120"/>
<path d="M68.3634 27.8177C68.3549 27.8177 68.3464 27.8177 68.3464 27.8177L59.7934 27.5544C59.4459 27.5459 59.1662 27.2486 59.1831 26.9004C59.1916 26.5607 59.4713 26.2889 59.8189 26.2889C59.8273 26.2889 59.8358 26.2889 59.8358 26.2889L68.3888 26.5522C68.7364 26.5607 69.0161 26.8579 68.9991 27.2062C68.9822 27.5459 68.7024 27.8177 68.3634 27.8177Z" fill="#29B475"/>
</svg>
